<svg width="15" height="16" viewBox="0 0 15 16" fill="none" xmlns="http://www.w3.org/2000/svg">
<path id="LabelIcon" fill-rule="evenodd" clip-rule="evenodd" d="M7.5 15.5C3.35775 15.5 0 12.1423 0 8C0 3.85775 3.35775 0.5 7.5 0.5C11.6423 0.5 15 3.85775 15 8C15 12.1423 11.6423 15.5 7.5 15.5ZM7.5 14C9.0913 14 10.6174 13.3679 11.7426 12.2426C12.8679 11.1174 13.5 9.5913 13.5 8C13.5 6.4087 12.8679 4.88258 11.7426 3.75736C10.6174 2.63214 9.0913 2 7.5 2C5.9087 2 4.38258 2.63214 3.25736 3.75736C2.13214 4.88258 1.5 6.4087 1.5 8C1.5 9.5913 2.13214 11.1174 3.25736 12.2426C4.38258 13.3679 5.9087 14 7.5 14ZM6.75 11H8.25V12.5H6.75V11ZM6.75 9.506C6.75 9.506 8.25 9.5 8.25 9.506C8.25 8.7545 10.5 8 10.5 6.5C10.5 4.8425 9.17025 3.5 7.50675 3.5C7.11222 3.49911 6.72138 3.57605 6.35663 3.72642C5.99187 3.87679 5.66036 4.09763 5.38106 4.37629C5.10177 4.65495 4.88019 4.98597 4.72901 5.35039C4.57782 5.71481 4.5 6.10547 4.5 6.5H6C6 5.675 6.675 5 7.5 5C8.325 5 9 5.675 9 6.5C9 7.175 6.75 8.27525 6.75 9.506Z" fill="black"/>
</svg>
